<svg xmlns="http://www.w3.org/2000/svg" xmlns:xlink="http://www.w3.org/1999/xlink" width="109" zoomAndPan="magnify" viewBox="0 0 81.75 38.999999" height="52" preserveAspectRatio="xMidYMid meet" version="1.0"><defs><g/><clipPath id="7c96f99e93"><path d="M 40.875 16 L 44 16 L 44 19 L 40.875 19 Z M 40.875 16 " clip-rule="nonzero"/></clipPath><clipPath id="83fe08af09"><path d="M 52 1.03125 L 80.625 1.03125 L 80.625 35.53125 L 52 35.53125 Z M 52 1.03125 " clip-rule="nonzero"/></clipPath></defs><path fill="#ffffff" d="M 61.417969 16.851562 L 64.730469 16.851562 L 64.730469 20.21875 L 61.417969 20.21875 Z M 61.417969 16.851562 " fill-opacity="1" fill-rule="nonzero"/><path fill="#ffffff" d="M 52.296875 14.40625 L 55.605469 14.40625 L 55.605469 17.773438 L 52.296875 17.773438 Z M 52.296875 14.40625 " fill-opacity="1" fill-rule="nonzero"/><path fill="#ffffff" d="M 47.371094 18.859375 L 50.683594 18.859375 L 50.683594 15.492188 L 47.496094 15.492188 L 47.496094 13.628906 L 45.515625 13.628906 L 45.515625 15.644531 L 47.371094 15.644531 Z M 47.371094 18.859375 " fill-opacity="1" fill-rule="nonzero"/><path fill="#ffffff" d="M 62.535156 21.675781 L 64.964844 21.675781 L 64.964844 24.144531 L 62.535156 24.144531 Z M 62.535156 21.675781 " fill-opacity="1" fill-rule="nonzero"/><path fill="#ffffff" d="M 45.570312 19.746094 L 48 19.746094 L 48 22.21875 L 45.570312 22.21875 Z M 45.570312 19.746094 " fill-opacity="1" fill-rule="nonzero"/><path fill="#ffffff" d="M 48.859375 11.3125 L 51.289062 11.3125 L 51.289062 13.78125 L 48.859375 13.78125 Z M 48.859375 11.3125 " fill-opacity="1" fill-rule="nonzero"/><path fill="#ffffff" d="M 42.265625 20.90625 L 44.25 20.90625 L 44.25 22.921875 L 42.265625 22.921875 Z M 42.265625 20.90625 " fill-opacity="1" fill-rule="nonzero"/><g clip-path="url(#7c96f99e93)"><path fill="#ffffff" d="M 40.875 16.238281 L 43.304688 16.238281 L 43.304688 18.707031 L 40.875 18.707031 Z M 40.875 16.238281 " fill-opacity="1" fill-rule="nonzero"/></g><path fill="#ffffff" d="M 53.710938 19.785156 L 50.398438 19.785156 L 50.398438 22.984375 L 48.101562 22.984375 L 48.101562 25.457031 L 50.527344 25.457031 L 50.527344 23.152344 L 53.710938 23.152344 Z M 53.710938 19.785156 " fill-opacity="1" fill-rule="nonzero"/><g clip-path="url(#83fe08af09)"><path fill="#ffffff" d="M 78.4375 13.679688 C 78.054688 13.167969 77.613281 12.671875 77.148438 12.191406 C 74.804688 9.816406 72.453125 7.449219 70.132812 5.058594 C 68.636719 3.515625 66.78125 2.082031 64.652344 1.636719 C 61.851562 1.050781 59.3125 2.53125 57.265625 4.332031 C 56.210938 5.257812 55.246094 6.289062 54.285156 7.320312 C 53.867188 7.769531 53.253906 8.226562 53.152344 8.816406 L 53.152344 12.992188 L 57.109375 12.992188 L 57.109375 16.117188 L 60.417969 16.117188 L 60.417969 12.75 L 57.34375 12.75 C 57.34375 12.46875 57.34375 12.191406 57.34375 11.902344 C 57.34375 11.269531 57.351562 10.648438 57.34375 10.015625 L 57.34375 8.808594 L 61.160156 8.808594 C 61.160156 8.808594 61.347656 8.5625 61.664062 8.257812 C 61.710938 8.207031 61.757812 8.167969 61.804688 8.121094 C 61.898438 8.03125 62 7.945312 62.109375 7.855469 C 62.140625 7.832031 62.179688 7.808594 62.214844 7.785156 C 62.433594 7.625 62.667969 7.472656 62.929688 7.351562 C 63.054688 7.296875 63.1875 7.25 63.320312 7.210938 C 63.605469 7.183594 63.917969 7.296875 64.164062 7.488281 C 67.457031 9.976562 70.054688 13.308594 73.074219 16.140625 C 74.261719 16.988281 74.820312 18.851562 73.773438 20.035156 C 72.507812 21.570312 71.015625 22.890625 69.644531 24.320312 C 67.742188 26.039062 66.261719 28.335938 63.976562 29.542969 C 63.785156 29.6875 63.582031 29.75 63.359375 29.742188 C 63.304688 29.734375 63.25 29.726562 63.195312 29.71875 C 63.171875 29.71875 63.148438 29.710938 63.117188 29.703125 C 63.117188 29.703125 63.109375 29.703125 63.101562 29.703125 C 61.945312 29.4375 60.6875 27.976562 60.507812 27.75 L 60.484375 27.75 L 57.148438 27.734375 L 55.253906 27.726562 C 55.253906 26.917969 55.246094 26.113281 55.253906 25.304688 L 59.335938 25.304688 L 59.335938 21.035156 L 55.230469 21.035156 C 55.230469 21.035156 55.230469 21.035156 55.222656 21.035156 L 55.023438 21.035156 C 55.054688 22.347656 55.054688 23.664062 55.054688 24.976562 L 52.546875 24.976562 L 52.546875 27.71875 L 52.601562 27.773438 L 54.617188 29.886719 L 54.65625 29.925781 L 55.261719 30.566406 L 55.253906 30.542969 C 55.660156 30.957031 56.078125 31.382812 56.488281 31.796875 C 57.605469 32.933594 58.777344 34.027344 60.253906 34.644531 C 62.046875 35.394531 64.070312 35.507812 65.925781 34.914062 C 66.84375 34.621094 67.703125 34.15625 68.464844 33.5625 C 69.519531 32.734375 70.375 31.652344 71.3125 30.6875 L 72.972656 28.984375 C 75.378906 26.625 77.957031 24.410156 79.554688 21.417969 C 79.71875 21.019531 79.855469 20.625 79.949219 20.242188 C 80.625 17.714844 79.847656 15.558594 78.4375 13.679688 Z M 78.4375 13.679688 " fill-opacity="1" fill-rule="nonzero"/></g><g fill="#ffffff" fill-opacity="1"><g transform="translate(16.436845, 22.663943)"><g><path d="M 1.4375 -6.949219 C 1.941406 -6.949219 2.363281 -7.28125 2.363281 -7.808594 C 2.363281 -8.308594 1.941406 -8.664062 1.4375 -8.664062 C 0.925781 -8.664062 0.511719 -8.308594 0.511719 -7.808594 C 0.511719 -7.28125 0.925781 -6.949219 1.4375 -6.949219 Z M 0.679688 2.253906 C 1.660156 2.253906 2.195312 1.738281 2.195312 0.8125 L 2.195312 -6.257812 L 0.691406 -6.257812 L 0.691406 0.378906 C 0.691406 0.882812 0.414062 0.980469 0.101562 0.980469 L -0.480469 0.980469 L -0.480469 2.253906 Z M 0.679688 2.253906 "/></g></g></g><g fill="#ffffff" fill-opacity="1"><g transform="translate(19.144773, 22.663943)"><g><path d="M 2.1875 0 L 2.1875 -3.3125 C 2.1875 -4.117188 2.308594 -4.539062 2.554688 -4.828125 C 2.730469 -5.03125 2.988281 -5.152344 3.3125 -5.152344 C 3.9375 -5.152344 4.304688 -4.761719 4.304688 -3.914062 L 4.304688 0 L 5.808594 0 L 5.808594 -3.3125 C 5.808594 -4.039062 5.898438 -4.527344 6.191406 -4.851562 C 6.355469 -5.03125 6.601562 -5.152344 6.9375 -5.152344 C 7.574219 -5.152344 7.917969 -4.773438 7.917969 -3.914062 L 7.917969 0 L 9.425781 0 L 9.425781 -4.105469 C 9.425781 -5.5 8.777344 -6.390625 7.371094 -6.390625 C 6.546875 -6.390625 5.945312 -6.089844 5.53125 -5.386719 C 5.332031 -6.054688 4.707031 -6.390625 3.890625 -6.390625 C 3.246094 -6.390625 2.675781 -6.144531 2.1875 -5.464844 L 2.1875 -6.257812 L 0.679688 -6.257812 L 0.679688 0 Z M 2.1875 0 "/></g></g></g><g fill="#ffffff" fill-opacity="1"><g transform="translate(29.040953, 22.663943)"><g><path d="M 2.488281 0.121094 C 3.023438 0.121094 3.511719 0.0351562 3.902344 -0.222656 C 4.136719 -0.367188 4.316406 -0.570312 4.472656 -0.847656 L 4.472656 0 L 5.976562 0 L 5.976562 -3.257812 C 5.976562 -4.125 5.976562 -5.109375 5.242188 -5.753906 C 4.773438 -6.191406 4.070312 -6.390625 3.347656 -6.390625 C 2.109375 -6.390625 0.890625 -5.722656 0.667969 -4.261719 L 2.164062 -4.261719 C 2.273438 -4.851562 2.765625 -5.207031 3.335938 -5.207031 C 3.691406 -5.207031 3.980469 -5.109375 4.171875 -4.90625 C 4.359375 -4.707031 4.460938 -4.40625 4.472656 -4.027344 L 2.609375 -3.679688 C 2.085938 -3.578125 1.550781 -3.421875 1.148438 -3.144531 C 0.714844 -2.84375 0.433594 -2.386719 0.433594 -1.71875 C 0.433594 -0.523438 1.304688 0.121094 2.488281 0.121094 Z M 2.855469 -1.058594 C 2.332031 -1.058594 1.941406 -1.304688 1.941406 -1.773438 C 1.941406 -1.984375 2.019531 -2.140625 2.140625 -2.265625 C 2.320312 -2.429688 2.578125 -2.542969 3.011719 -2.621094 L 4.503906 -2.921875 C 4.484375 -2.097656 4.316406 -1.5625 3.65625 -1.238281 C 3.414062 -1.117188 3.132812 -1.058594 2.855469 -1.058594 Z M 2.855469 -1.058594 "/></g></g></g><g fill="#ffffff" fill-opacity="1"><g transform="translate(35.460017, 22.663943)"><g><path d="M 3.078125 0 L 3.078125 -1.25 L 2.675781 -1.25 C 2.308594 -1.25 2.164062 -1.394531 2.164062 -1.816406 L 2.164062 -8.507812 L 0.65625 -8.507812 L 0.65625 -1.371094 C 0.65625 -0.402344 1.183594 0 2.109375 0 Z M 3.078125 0 "/></g></g></g><g fill="#ff3131" fill-opacity="1"><g transform="translate(1.216426, 24.198723)"><g><path d="M 0.0625 0 L 0.0625 -1.125 L 1.484375 -1.125 L 5.625 -11.84375 L 7.484375 -11.84375 L 11.703125 -1.125 L 13.015625 -1.125 L 13.015625 0 L 7.921875 0 L 7.921875 -1.125 L 9.6875 -1.125 L 8.59375 -3.96875 L 4.046875 -3.96875 L 3.015625 -1.125 L 5 -1.125 L 5 0 Z M 4.40625 -4.96875 L 8.203125 -4.96875 L 6.25 -10.296875 Z M 4.40625 -4.96875 "/></g></g></g></svg>